<svg width="735" height="735" viewBox="0 0 735 735" fill="none" xmlns="http://www.w3.org/2000/svg">
<rect x="0.25" y="0.25" width="48.5" height="48.5" stroke="#808080" stroke-width="0.5"/>
<rect x="49.25" y="0.25" width="48.5" height="48.5" stroke="#808080" stroke-width="0.5"/>
<rect x="98.25" y="0.25" width="48.5" height="48.5" stroke="#808080" stroke-width="0.5"/>
<rect x="147.25" y="0.25" width="48.5" height="48.5" stroke="#808080" stroke-width="0.5"/>
<rect x="196.25" y="0.25" width="48.5" height="48.5" stroke="#808080" stroke-width="0.5"/>
<rect x="245.25" y="0.25" width="48.5" height="48.5" stroke="#808080" stroke-width="0.5"/>
<rect x="294.25" y="0.25" width="48.5" height="48.5" stroke="#808080" stroke-width="0.5"/>
<rect x="343.25" y="0.25" width="48.5" height="48.5" stroke="#808080" stroke-width="0.5"/>
<rect x="392.25" y="0.25" width="48.5" height="48.5" stroke="#808080" stroke-width="0.5"/>
<rect x="441.25" y="0.25" width="48.5" height="48.5" stroke="#808080" stroke-width="0.5"/>
<rect x="490.25" y="0.25" width="48.5" height="48.5" stroke="#808080" stroke-width="0.5"/>
<rect x="539.25" y="0.25" width="48.5" height="48.5" stroke="#808080" stroke-width="0.5"/>
<rect x="588.25" y="0.25" width="48.5" height="48.5" stroke="#808080" stroke-width="0.5"/>
<rect x="637.25" y="0.25" width="48.5" height="48.5" stroke="#808080" stroke-width="0.5"/>
<rect x="686.25" y="0.25" width="48.5" height="48.5" stroke="#808080" stroke-width="0.5"/>
<rect x="0.25" y="49.25" width="48.5" height="48.5" stroke="#808080" stroke-width="0.5"/>
<rect x="49.25" y="49.25" width="48.5" height="48.5" stroke="#808080" stroke-width="0.5"/>
<rect x="98.25" y="49.25" width="48.5" height="48.5" stroke="#808080" stroke-width="0.5"/>
<rect x="147.25" y="49.25" width="48.5" height="48.5" stroke="#808080" stroke-width="0.5"/>
<rect x="196.25" y="49.25" width="48.5" height="48.5" stroke="#808080" stroke-width="0.5"/>
<rect x="245.25" y="49.25" width="48.5" height="48.5" stroke="#808080" stroke-width="0.5"/>
<rect x="294.25" y="49.25" width="48.5" height="48.5" stroke="#808080" stroke-width="0.5"/>
<rect x="343.25" y="49.25" width="48.5" height="48.5" stroke="#808080" stroke-width="0.5"/>
<rect x="392.25" y="49.25" width="48.5" height="48.5" stroke="#808080" stroke-width="0.5"/>
<rect x="441.25" y="49.25" width="48.5" height="48.5" stroke="#808080" stroke-width="0.5"/>
<rect x="490.25" y="49.25" width="48.5" height="48.5" stroke="#808080" stroke-width="0.5"/>
<rect x="539.25" y="49.25" width="48.5" height="48.5" stroke="#808080" stroke-width="0.5"/>
<rect x="588.25" y="49.25" width="48.5" height="48.5" stroke="#808080" stroke-width="0.5"/>
<rect x="637.25" y="49.25" width="48.5" height="48.5" fill="#8D8D8D"/>
<rect x="637.25" y="49.25" width="48.5" height="48.5" stroke="#808080" stroke-width="0.5"/>
<rect x="686.25" y="49.25" width="48.5" height="48.5" stroke="#808080" stroke-width="0.5"/>
<rect x="0.25" y="98.25" width="48.5" height="48.5" stroke="#808080" stroke-width="0.5"/>
<rect x="49.25" y="98.25" width="48.5" height="48.5" stroke="#808080" stroke-width="0.5"/>
<rect x="98.25" y="98.25" width="48.5" height="48.5" stroke="#808080" stroke-width="0.5"/>
<rect x="147.25" y="98.25" width="48.5" height="48.5" stroke="#808080" stroke-width="0.5"/>
<rect x="196.25" y="98.25" width="48.5" height="48.5" fill="#8D8D8D"/>
<rect x="196.25" y="98.25" width="48.5" height="48.5" stroke="#808080" stroke-width="0.5"/>
<rect x="245.25" y="98.25" width="48.5" height="48.5" stroke="#808080" stroke-width="0.5"/>
<rect x="294.25" y="98.25" width="48.5" height="48.5" stroke="#808080" stroke-width="0.5"/>
<rect x="343.25" y="98.25" width="48.5" height="48.5" stroke="#808080" stroke-width="0.5"/>
<rect x="392.25" y="98.25" width="48.5" height="48.5" stroke="#808080" stroke-width="0.5"/>
<rect x="441.25" y="98.25" width="48.5" height="48.5" stroke="#808080" stroke-width="0.5"/>
<rect x="490.25" y="98.25" width="48.5" height="48.5" stroke="#808080" stroke-width="0.5"/>
<rect x="539.25" y="98.25" width="48.5" height="48.5" stroke="#808080" stroke-width="0.5"/>
<rect x="588.25" y="98.25" width="48.5" height="48.5" stroke="#808080" stroke-width="0.5"/>
<rect x="637.25" y="98.25" width="48.5" height="48.5" stroke="#808080" stroke-width="0.5"/>
<rect x="686.25" y="98.25" width="48.5" height="48.5" stroke="#808080" stroke-width="0.5"/>
<rect x="0.25" y="147.25" width="48.5" height="48.5" stroke="#808080" stroke-width="0.5"/>
<rect x="49.25" y="147.25" width="48.5" height="48.5" stroke="#808080" stroke-width="0.5"/>
<rect x="98.25" y="147.25" width="48.5" height="48.5" stroke="#808080" stroke-width="0.5"/>
<rect x="147.25" y="147.25" width="48.5" height="48.5" stroke="#808080" stroke-width="0.5"/>
<rect x="196.25" y="147.25" width="48.5" height="48.5" stroke="#808080" stroke-width="0.5"/>
<rect x="245.25" y="147.25" width="48.5" height="48.5" stroke="#808080" stroke-width="0.5"/>
<rect x="294.25" y="147.25" width="48.5" height="48.5" stroke="#808080" stroke-width="0.5"/>
<rect x="343.25" y="147.25" width="48.5" height="48.5" stroke="#808080" stroke-width="0.5"/>
<rect x="392.25" y="147.25" width="48.5" height="48.5" stroke="#808080" stroke-width="0.5"/>
<rect x="441.25" y="147.25" width="48.5" height="48.5" stroke="#808080" stroke-width="0.5"/>
<rect x="490.25" y="147.25" width="48.5" height="48.5" stroke="#808080" stroke-width="0.5"/>
<rect x="539.25" y="147.25" width="48.5" height="48.5" stroke="#808080" stroke-width="0.5"/>
<rect x="588.25" y="147.25" width="48.5" height="48.5" stroke="#808080" stroke-width="0.5"/>
<rect x="637.25" y="147.25" width="48.5" height="48.5" stroke="#808080" stroke-width="0.5"/>
<rect x="686.25" y="147.25" width="48.5" height="48.5" stroke="#808080" stroke-width="0.5"/>
<rect x="0.25" y="196.25" width="48.5" height="48.5" stroke="#808080" stroke-width="0.5"/>
<rect x="49.25" y="196.25" width="48.5" height="48.5" stroke="#808080" stroke-width="0.5"/>
<rect x="98.25" y="196.25" width="48.5" height="48.5" stroke="#808080" stroke-width="0.5"/>
<rect x="147.25" y="196.25" width="48.5" height="48.5" stroke="#808080" stroke-width="0.5"/>
<rect x="196.25" y="196.25" width="48.5" height="48.5" stroke="#808080" stroke-width="0.5"/>
<rect x="245.25" y="196.25" width="48.5" height="48.5" stroke="#808080" stroke-width="0.5"/>
<rect x="294.25" y="196.25" width="48.5" height="48.5" stroke="#808080" stroke-width="0.5"/>
<rect x="343.25" y="196.25" width="48.5" height="48.5" stroke="#808080" stroke-width="0.5"/>
<rect x="392.25" y="196.25" width="48.5" height="48.5" stroke="#808080" stroke-width="0.5"/>
<rect x="441.25" y="196.25" width="48.5" height="48.5" stroke="#808080" stroke-width="0.5"/>
<rect x="490.25" y="196.25" width="48.5" height="48.5" stroke="#808080" stroke-width="0.5"/>
<rect x="539.25" y="196.25" width="48.5" height="48.5" stroke="#808080" stroke-width="0.5"/>
<rect x="588.25" y="196.25" width="48.5" height="48.5" stroke="#808080" stroke-width="0.5"/>
<rect x="637.25" y="196.25" width="48.5" height="48.5" stroke="#808080" stroke-width="0.5"/>
<rect x="686.25" y="196.25" width="48.5" height="48.5" stroke="#808080" stroke-width="0.5"/>
<rect x="0.25" y="245.25" width="48.5" height="48.5" stroke="#808080" stroke-width="0.5"/>
<rect x="49.25" y="245.25" width="48.5" height="48.5" stroke="#808080" stroke-width="0.5"/>
<rect x="98.25" y="245.25" width="48.5" height="48.5" stroke="#808080" stroke-width="0.5"/>
<rect x="147.25" y="245.25" width="48.5" height="48.5" stroke="#808080" stroke-width="0.5"/>
<rect x="196.25" y="245.25" width="48.5" height="48.5" stroke="#808080" stroke-width="0.5"/>
<rect x="245.25" y="245.25" width="48.5" height="48.5" stroke="#808080" stroke-width="0.5"/>
<rect x="294.25" y="245.25" width="48.5" height="48.5" stroke="#808080" stroke-width="0.5"/>
<rect x="343.25" y="245.25" width="48.5" height="48.5" stroke="#808080" stroke-width="0.5"/>
<rect x="392.25" y="245.25" width="48.5" height="48.5" stroke="#808080" stroke-width="0.5"/>
<rect x="441.25" y="245.25" width="48.5" height="48.5" stroke="#808080" stroke-width="0.5"/>
<rect x="490.25" y="245.25" width="48.5" height="48.5" stroke="#808080" stroke-width="0.5"/>
<rect x="539.25" y="245.25" width="48.5" height="48.5" stroke="#808080" stroke-width="0.5"/>
<rect x="588.25" y="245.25" width="48.5" height="48.5" stroke="#808080" stroke-width="0.5"/>
<rect x="637.25" y="245.25" width="48.5" height="48.5" fill="#8D8D8D"/>
<rect x="637.25" y="245.25" width="48.5" height="48.5" stroke="#808080" stroke-width="0.5"/>
<rect x="686.25" y="245.25" width="48.5" height="48.5" stroke="#808080" stroke-width="0.5"/>
<rect x="0.25" y="294.25" width="48.5" height="48.5" stroke="#808080" stroke-width="0.5"/>
<rect x="49.25" y="294.25" width="48.5" height="48.5" stroke="#808080" stroke-width="0.5"/>
<rect x="98.25" y="294.25" width="48.5" height="48.5" stroke="#808080" stroke-width="0.5"/>
<rect x="147.25" y="294.25" width="48.5" height="48.5" stroke="#808080" stroke-width="0.5"/>
<rect x="196.25" y="294.25" width="48.5" height="48.5" stroke="#808080" stroke-width="0.5"/>
<rect x="245.25" y="294.25" width="48.5" height="48.5" stroke="#808080" stroke-width="0.5"/>
<rect x="294.25" y="294.25" width="48.5" height="48.5" stroke="#808080" stroke-width="0.5"/>
<rect x="343.25" y="294.25" width="48.5" height="48.5" stroke="#808080" stroke-width="0.5"/>
<rect x="392.25" y="294.25" width="48.5" height="48.5" stroke="#808080" stroke-width="0.5"/>
<rect x="441.25" y="294.25" width="48.5" height="48.5" stroke="#808080" stroke-width="0.5"/>
<rect x="490.25" y="294.25" width="48.5" height="48.5" stroke="#808080" stroke-width="0.5"/>
<rect x="539.25" y="294.25" width="48.5" height="48.5" stroke="#808080" stroke-width="0.5"/>
<rect x="588.25" y="294.25" width="48.5" height="48.5" stroke="#808080" stroke-width="0.5"/>
<rect x="637.25" y="294.25" width="48.5" height="48.5" stroke="#808080" stroke-width="0.5"/>
<rect x="686.25" y="294.25" width="48.5" height="48.5" stroke="#808080" stroke-width="0.5"/>
<rect x="0.25" y="343.25" width="48.5" height="48.5" stroke="#808080" stroke-width="0.5"/>
<rect x="49.25" y="343.25" width="48.5" height="48.5" stroke="#808080" stroke-width="0.5"/>
<rect x="98.25" y="343.25" width="48.5" height="48.5" fill="#8D8D8D"/>
<rect x="98.25" y="343.25" width="48.5" height="48.5" stroke="#808080" stroke-width="0.5"/>
<rect x="147.25" y="343.25" width="48.5" height="48.5" stroke="#808080" stroke-width="0.5"/>
<rect x="196.25" y="343.25" width="48.5" height="48.5" stroke="#808080" stroke-width="0.5"/>
<rect x="245.25" y="343.25" width="48.5" height="48.5" stroke="#808080" stroke-width="0.5"/>
<rect x="294.25" y="343.25" width="48.5" height="48.5" stroke="#808080" stroke-width="0.5"/>
<rect x="343.25" y="343.25" width="48.5" height="48.5" stroke="#808080" stroke-width="0.5"/>
<rect x="392.25" y="343.25" width="48.5" height="48.5" stroke="#808080" stroke-width="0.5"/>
<rect x="441.25" y="343.25" width="48.5" height="48.5" stroke="#808080" stroke-width="0.5"/>
<rect x="490.25" y="343.25" width="48.5" height="48.5" stroke="#808080" stroke-width="0.5"/>
<rect x="539.25" y="343.25" width="48.5" height="48.5" stroke="#808080" stroke-width="0.5"/>
<rect x="588.25" y="343.25" width="48.5" height="48.5" stroke="#808080" stroke-width="0.5"/>
<rect x="637.25" y="343.25" width="48.5" height="48.5" stroke="#808080" stroke-width="0.5"/>
<rect x="686.25" y="343.25" width="48.5" height="48.5" stroke="#808080" stroke-width="0.5"/>
<rect x="0.25" y="392.25" width="48.5" height="48.5" stroke="#808080" stroke-width="0.5"/>
<rect x="49.25" y="392.25" width="48.5" height="48.5" stroke="#808080" stroke-width="0.5"/>
<rect x="98.25" y="392.25" width="48.5" height="48.5" stroke="#808080" stroke-width="0.5"/>
<rect x="147.25" y="392.25" width="48.5" height="48.5" stroke="#808080" stroke-width="0.5"/>
<rect x="196.25" y="392.25" width="48.5" height="48.5" stroke="#808080" stroke-width="0.5"/>
<rect x="245.25" y="392.25" width="48.5" height="48.5" stroke="#808080" stroke-width="0.5"/>
<rect x="294.25" y="392.25" width="48.5" height="48.5" stroke="#808080" stroke-width="0.5"/>
<rect x="343.25" y="392.25" width="48.5" height="48.5" stroke="#808080" stroke-width="0.5"/>
<rect x="392.25" y="392.25" width="48.5" height="48.5" stroke="#808080" stroke-width="0.5"/>
<rect x="441.25" y="392.25" width="48.5" height="48.5" stroke="#808080" stroke-width="0.5"/>
<rect x="490.25" y="392.25" width="48.5" height="48.5" stroke="#808080" stroke-width="0.5"/>
<rect x="539.25" y="392.25" width="48.5" height="48.5" stroke="#808080" stroke-width="0.5"/>
<rect x="588.25" y="392.25" width="48.5" height="48.5" stroke="#808080" stroke-width="0.5"/>
<rect x="637.25" y="392.25" width="48.5" height="48.5" stroke="#808080" stroke-width="0.5"/>
<rect x="686.25" y="392.25" width="48.5" height="48.5" stroke="#808080" stroke-width="0.5"/>
<rect x="0.25" y="441.25" width="48.5" height="48.5" stroke="#808080" stroke-width="0.5"/>
<rect x="49.25" y="441.25" width="48.5" height="48.5" stroke="#808080" stroke-width="0.5"/>
<rect x="98.25" y="441.25" width="48.5" height="48.5" stroke="#808080" stroke-width="0.5"/>
<rect x="147.25" y="441.25" width="48.5" height="48.5" stroke="#808080" stroke-width="0.5"/>
<rect x="196.25" y="441.25" width="48.5" height="48.5" stroke="#808080" stroke-width="0.5"/>
<rect x="245.25" y="441.25" width="48.5" height="48.5" stroke="#808080" stroke-width="0.5"/>
<rect x="294.25" y="441.25" width="48.5" height="48.5" stroke="#808080" stroke-width="0.5"/>
<rect x="343.25" y="441.25" width="48.5" height="48.5" stroke="#808080" stroke-width="0.5"/>
<rect x="392.25" y="441.25" width="48.5" height="48.5" stroke="#808080" stroke-width="0.5"/>
<rect x="441.25" y="441.25" width="48.5" height="48.5" stroke="#808080" stroke-width="0.5"/>
<rect x="490.25" y="441.25" width="48.5" height="48.5" stroke="#808080" stroke-width="0.5"/>
<rect x="539.25" y="441.25" width="48.5" height="48.5" stroke="#808080" stroke-width="0.5"/>
<rect x="588.25" y="441.25" width="48.5" height="48.5" stroke="#808080" stroke-width="0.5"/>
<rect x="637.25" y="441.25" width="48.5" height="48.5" stroke="#808080" stroke-width="0.5"/>
<rect x="686.25" y="441.25" width="48.5" height="48.5" stroke="#808080" stroke-width="0.5"/>
<rect x="0.25" y="490.25" width="48.5" height="48.5" stroke="#808080" stroke-width="0.5"/>
<rect x="49.25" y="490.25" width="48.5" height="48.5" stroke="#808080" stroke-width="0.5"/>
<rect x="98.25" y="490.25" width="48.5" height="48.5" stroke="#808080" stroke-width="0.5"/>
<rect x="147.25" y="490.25" width="48.5" height="48.5" stroke="#808080" stroke-width="0.5"/>
<rect x="196.25" y="490.25" width="48.5" height="48.5" stroke="#808080" stroke-width="0.5"/>
<rect x="245.25" y="490.25" width="48.5" height="48.5" stroke="#808080" stroke-width="0.5"/>
<rect x="294.25" y="490.25" width="48.5" height="48.5" stroke="#808080" stroke-width="0.5"/>
<rect x="343.25" y="490.25" width="48.5" height="48.5" fill="#8D8D8D"/>
<rect x="343.25" y="490.25" width="48.5" height="48.5" stroke="#808080" stroke-width="0.5"/>
<rect x="392.25" y="490.25" width="48.5" height="48.5" stroke="#808080" stroke-width="0.5"/>
<rect x="441.25" y="490.25" width="48.5" height="48.5" stroke="#808080" stroke-width="0.5"/>
<rect x="490.25" y="490.25" width="48.5" height="48.5" stroke="#808080" stroke-width="0.5"/>
<rect x="539.25" y="490.25" width="48.5" height="48.5" stroke="#808080" stroke-width="0.5"/>
<rect x="588.25" y="490.25" width="48.5" height="48.5" stroke="#808080" stroke-width="0.5"/>
<rect x="637.25" y="490.25" width="48.5" height="48.5" stroke="#808080" stroke-width="0.5"/>
<rect x="686.25" y="490.25" width="48.5" height="48.5" stroke="#808080" stroke-width="0.5"/>
<rect x="0.25" y="539.25" width="48.5" height="48.5" stroke="#808080" stroke-width="0.5"/>
<rect x="49.25" y="539.25" width="48.5" height="48.5" stroke="#808080" stroke-width="0.5"/>
<rect x="98.25" y="539.25" width="48.5" height="48.5" stroke="#808080" stroke-width="0.5"/>
<rect x="147.25" y="539.25" width="48.5" height="48.5" stroke="#808080" stroke-width="0.5"/>
<rect x="196.25" y="539.25" width="48.5" height="48.5" stroke="#808080" stroke-width="0.5"/>
<rect x="245.25" y="539.25" width="48.5" height="48.5" stroke="#808080" stroke-width="0.5"/>
<rect x="294.25" y="539.25" width="48.5" height="48.5" stroke="#808080" stroke-width="0.5"/>
<rect x="343.25" y="539.25" width="48.5" height="48.5" stroke="#808080" stroke-width="0.5"/>
<rect x="392.25" y="539.25" width="48.5" height="48.5" stroke="#808080" stroke-width="0.5"/>
<rect x="441.25" y="539.25" width="48.5" height="48.5" stroke="#808080" stroke-width="0.5"/>
<rect x="490.25" y="539.25" width="48.5" height="48.5" stroke="#808080" stroke-width="0.5"/>
<rect x="539.25" y="539.25" width="48.5" height="48.5" stroke="#808080" stroke-width="0.5"/>
<rect x="588.25" y="539.25" width="48.5" height="48.5" stroke="#808080" stroke-width="0.5"/>
<rect x="637.25" y="539.25" width="48.5" height="48.5" stroke="#808080" stroke-width="0.5"/>
<rect x="686.25" y="539.25" width="48.5" height="48.5" stroke="#808080" stroke-width="0.5"/>
<rect x="0.25" y="588.25" width="48.5" height="48.5" stroke="#808080" stroke-width="0.5"/>
<rect x="49.25" y="588.25" width="48.5" height="48.5" stroke="#808080" stroke-width="0.5"/>
<rect x="98.25" y="588.25" width="48.5" height="48.5" stroke="#808080" stroke-width="0.5"/>
<rect x="147.25" y="588.25" width="48.5" height="48.5" stroke="#808080" stroke-width="0.5"/>
<rect x="196.25" y="588.25" width="48.5" height="48.5" stroke="#808080" stroke-width="0.5"/>
<rect x="245.25" y="588.25" width="48.5" height="48.5" stroke="#808080" stroke-width="0.5"/>
<rect x="294.25" y="588.25" width="48.5" height="48.5" stroke="#808080" stroke-width="0.5"/>
<rect x="343.25" y="588.25" width="48.5" height="48.5" stroke="#808080" stroke-width="0.5"/>
<rect x="392.25" y="588.25" width="48.5" height="48.5" stroke="#808080" stroke-width="0.5"/>
<rect x="441.25" y="588.25" width="48.5" height="48.5" stroke="#808080" stroke-width="0.5"/>
<rect x="490.25" y="588.25" width="48.5" height="48.5" stroke="#808080" stroke-width="0.5"/>
<rect x="539.25" y="588.25" width="48.5" height="48.5" stroke="#808080" stroke-width="0.5"/>
<rect x="588.25" y="588.25" width="48.5" height="48.5" stroke="#808080" stroke-width="0.5"/>
<rect x="637.25" y="588.25" width="48.5" height="48.5" stroke="#808080" stroke-width="0.5"/>
<rect x="686.25" y="588.25" width="48.5" height="48.5" stroke="#808080" stroke-width="0.5"/>
<rect x="0.25" y="637.25" width="48.5" height="48.5" stroke="#808080" stroke-width="0.5"/>
<rect x="49.25" y="637.25" width="48.5" height="48.5" stroke="#808080" stroke-width="0.5"/>
<rect x="98.25" y="637.25" width="48.5" height="48.5" stroke="#808080" stroke-width="0.5"/>
<rect x="147.25" y="637.25" width="48.5" height="48.5" fill="#8D8D8D"/>
<rect x="147.25" y="637.25" width="48.5" height="48.5" stroke="#808080" stroke-width="0.5"/>
<rect x="196.25" y="637.25" width="48.5" height="48.5" stroke="#808080" stroke-width="0.5"/>
<rect x="245.25" y="637.25" width="48.5" height="48.5" stroke="#808080" stroke-width="0.5"/>
<rect x="294.25" y="637.25" width="48.5" height="48.5" stroke="#808080" stroke-width="0.5"/>
<rect x="343.25" y="637.25" width="48.5" height="48.5" stroke="#808080" stroke-width="0.5"/>
<rect x="392.25" y="637.25" width="48.5" height="48.5" stroke="#808080" stroke-width="0.5"/>
<rect x="441.25" y="637.25" width="48.5" height="48.5" stroke="#808080" stroke-width="0.5"/>
<rect x="490.25" y="637.25" width="48.5" height="48.5" stroke="#808080" stroke-width="0.5"/>
<rect x="539.25" y="637.25" width="48.5" height="48.5" stroke="#808080" stroke-width="0.5"/>
<rect x="588.25" y="637.25" width="48.5" height="48.5" stroke="#808080" stroke-width="0.5"/>
<rect x="637.25" y="637.25" width="48.5" height="48.5" stroke="#808080" stroke-width="0.5"/>
<rect x="686.25" y="637.25" width="48.5" height="48.5" stroke="#808080" stroke-width="0.5"/>
<rect x="0.25" y="686.25" width="48.5" height="48.5" stroke="#808080" stroke-width="0.5"/>
<rect x="49.25" y="686.25" width="48.5" height="48.5" stroke="#808080" stroke-width="0.5"/>
<rect x="98.25" y="686.25" width="48.5" height="48.5" stroke="#808080" stroke-width="0.5"/>
<rect x="147.25" y="686.25" width="48.5" height="48.5" stroke="#808080" stroke-width="0.5"/>
<rect x="196.25" y="686.25" width="48.5" height="48.5" stroke="#808080" stroke-width="0.5"/>
<rect x="245.25" y="686.25" width="48.5" height="48.5" stroke="#808080" stroke-width="0.5"/>
<rect x="294.25" y="686.25" width="48.5" height="48.5" stroke="#808080" stroke-width="0.5"/>
<rect x="343.25" y="686.25" width="48.5" height="48.5" stroke="#808080" stroke-width="0.5"/>
<rect x="392.25" y="686.25" width="48.5" height="48.5" stroke="#808080" stroke-width="0.5"/>
<rect x="441.25" y="686.25" width="48.5" height="48.5" stroke="#808080" stroke-width="0.5"/>
<rect x="490.25" y="686.25" width="48.5" height="48.5" stroke="#808080" stroke-width="0.5"/>
<rect x="539.25" y="686.25" width="48.5" height="48.5" fill="#8D8D8D"/>
<rect x="539.25" y="686.25" width="48.5" height="48.5" stroke="#808080" stroke-width="0.5"/>
<rect x="588.25" y="686.25" width="48.5" height="48.5" stroke="#808080" stroke-width="0.5"/>
<rect x="637.25" y="686.25" width="48.5" height="48.5" stroke="#808080" stroke-width="0.5"/>
<rect x="686.25" y="686.25" width="48.5" height="48.5" stroke="#808080" stroke-width="0.5"/>
</svg>
